{"title":"Piranha 3DD (2012) - HDRip - Dual Audio [Hindi-English] Nirmalba","uid":7371572,"size":1049578239,"categoryP":"video","categoryS":"movies","magnet":"?xt=urn:btih:e21c1939c75722557cc1b9e462a3a820a4ab85bd&amp;dn=Piranha+3DD+%282012%29+-+HDRip+-+Dual+Audio+%5BHindi-English%5D+Nirmalba&amp;tr=udp%3A%2F%2Ftracker.openbittorrent.com%3A80&amp;tr=udp%3A%2F%2Fopen.demonii.com%3A1337&amp;tr=udp%3A%2F%2Ftracker.coppersurfer.tk%3A6969&amp;tr=udp%3A%2F%2Fexodus.desync.com%3A6969","seeders":0,"leechers":1,"uploader":"Nirmalbaba","files":1,"time":1340244266,"description":"Piranha 3DD (2012) - HDRip - Dual Audio [Hindi-English] Nirmalbaba Exclusive\n\n\n\n\n\nHaving awoken from their spring break extravaganza at Lake Victoria, the swarm heads \n\nupstream where they look to make a meal out of Big Wet, a local water park where when \n\nit comes to fun, nobody does it wetter! Though they came to get wet, get loaded and get \n\nsome, the staff and patrons get more than they bargained for when they must face the \n\nfiercest, most bloodthirsty piranhas yet. Lead by the strong-willed, studious Maddy and \n\nher friends, Barry and Kyle, the trio must dive in and take on these man-eating \n\ncreatures using every ounce of their being but can they be stopped?\n\nGenre: Comedy , Horror , Thriller\n\nINFO\n\nSize: 1 GB\nLanguage: English/Hindi\nForma: MKV\nRuntime: 83 min\nDirected by: John Gulager\nStarring:  Danielle Panabaker, David Hasselhoff and Matt Bush\n\nFormat : Matroska\nFormat version : Version 2\nFile size : 1 001 MiB\nDuration : 1h 22mn\nWidth : 720 pixels\nHeight : 380 pixels\nDisplay aspect ratio : 1.895\nFrame rate : 25.000 fps\n\n\nAudio #1\nID : 2\nFormat : MPEG Audio\nFormat version : Version 1\nFormat profile : Layer 3\nMuxing mode : Header stripping\nCodec ID : A_MPEG/L3\nCodec ID/Hint : MP3\nDuration : 1h 22mn\nBit rate mode : Constant\nBit rate : 128 Kbps\nChannel(s) : 2 channels\nSampling rate : 44.1 KHz\nCompression mode : Lossy\nStream size : 75.7 MiB (8%)\nTitle : -=AbdullaH=- [TDT]\nLanguage : Hindi\nDefault : Yes\nForced : No\n\nAudio #2\nID : 3\nFormat : MPEG Audio\nFormat version : Version 1\nFormat profile : Layer 3\nMuxing mode : Header stripping\nCodec ID : A_MPEG/L3\nCodec ID/Hint : MP3\nDuration : 1h 22mn\nBit rate mode : Constant\nBit rate : 128 Kbps\nChannel(s) : 2 channels\nSampling rate : 44.1 KHz\nCompression mode : Lossy\nStream size : 75.7 MiB (8%)\nTitle : -=AbdullaH=- [TDT]\nLanguage : English\n\n\nScreens\n &lt;a href=&quot;\nhttp://img99.imageshack.us/img99/8976/imagephppd.jpg&quot; rel=&quot;nofollow&quot; target=&quot;_NEW&quot;&gt;\nhttp://img99.imageshack.us/img99/8976/imagephppd.jpg&lt;/a&gt; &lt;a href=&quot;\nhttp://img443.imageshack.us/img443/7295/imagephp1a.jpg&quot; rel=&quot;nofollow&quot; target=&quot;_NEW&quot;&gt;\nhttp://img443.imageshack.us/img443/7295/imagephp1a.jpg&lt;/a&gt; &lt;a href=&quot;\nhttp://img254.imageshack.us/img254/101/imagephp2i.jpg&quot; rel=&quot;nofollow&quot; target=&quot;_NEW&quot;&gt;\nhttp://img254.imageshack.us/img254/101/imagephp2i.jpg&lt;/a&gt; &lt;a href=&quot;\nhttp://img546.imageshack.us/img546/5573/imagephp4u.jpg&quot; rel=&quot;nofollow&quot; target=&quot;_NEW&quot;&gt;\nhttp://img546.imageshack.us/img546/5573/imagephp4u.jpg&lt;/a&gt;","torrent":{"xt":"urn:btih:e21c1939c75722557cc1b9e462a3a820a4ab85bd","amp;dn":"Piranha+3DD+%282012%29+-+HDRip+-+Dual+Audio+%5BHindi-English%5D+Nirmalba","amp;tr":["udp%3A%2F%2Ftracker.openbittorrent.com%3A80","udp%3A%2F%2Fopen.demonii.com%3A1337","udp%3A%2F%2Ftracker.coppersurfer.tk%3A6969","udp%3A%2F%2Fexodus.desync.com%3A6969"],"infoHash":"e21c1939c75722557cc1b9e462a3a820a4ab85bd","infoHashBuffer":{"type":"Buffer","data":[226,28,25,57,199,87,34,85,124,193,185,228,98,163,168,32,164,171,133,189]},"announce":[],"urlList":[]}}